<?xml version="1.0" encoding="UTF-8"?>
<svg version="1.1" xmlns="http://www.w3.org/2000/svg" width="216" height="179">
<path d="M0 0 C0.7528125 0.08765625 1.505625 0.1753125 2.28125 0.265625 C4.6101584 0.77404866 6.42229716 1.59781933 8.5 2.75 C8.5 3.41 8.5 4.07 8.5 4.75 C9.49 5.08 10.48 5.41 11.5 5.75 C14.03333254 10.01666533 14.08735167 14.92162374 13.5 19.75 C12.484375 22.02734375 12.484375 22.02734375 11.5 23.75 C10.84 23.75 10.18 23.75 9.5 23.75 C9.396875 24.389375 9.29375 25.02875 9.1875 25.6875 C8.960625 26.368125 8.73375 27.04875 8.5 27.75 C7.015 28.245 7.015 28.245 5.5 28.75 C5.995 31.72 5.995 31.72 6.5 34.75 C4.85 34.42 3.2 34.09 1.5 33.75 C2.16 34.41 2.82 35.07 3.5 35.75 C3.83 36.41 4.16 37.07 4.5 37.75 C6.48367443 38.46377881 8.48727099 39.12281075 10.5 39.75 C12.4234947 40.54620067 14.34017399 41.35904845 16.25 42.1875 C20.81395622 44.11450374 25.33817151 45.66221702 30.09765625 47.015625 C33.35154195 48.01030876 36.4466753 49.30836523 39.58984375 50.60546875 C42.38420903 51.70446073 45.20355049 52.69402668 48.04516602 53.66308594 C56.18122097 56.44800626 64.16936764 59.54818531 72.125 62.8125 C73.14416504 63.22387207 74.16333008 63.63524414 75.21337891 64.05908203 C80.8622146 66.40629805 85.83371098 68.75488954 90.5 72.75 C91.29150391 74.74243164 91.29150391 74.74243164 91.5 76.75 C88.32834501 81.23406396 84.68200171 82.93810844 79.42578125 84.31640625 C70.28295831 85.67135064 60.6937732 83.59876978 51.65625 82.15234375 C48.49814569 81.68152017 48.49814569 81.68152017 45.28125 81.75390625 C42.5 81.75 42.5 81.75 39.5 80.75 C38.0746753 80.5494168 36.64378743 80.38684007 35.2109375 80.25 C33.93549072 80.1269751 33.93549072 80.1269751 32.63427734 80.00146484 C31.72371582 79.91848145 30.8131543 79.83549805 29.875 79.75 C28.93221191 79.66314941 27.98942383 79.57629883 27.01806641 79.48681641 C-6.26094289 76.49310975 -39.61514579 77.68929025 -72.75756836 81.87231445 C-86.5487758 83.55083226 -86.5487758 83.55083226 -92.875 79.25 C-93.87660156 78.58484375 -93.87660156 78.58484375 -94.8984375 77.90625 C-96.5 76.75 -96.5 76.75 -97.5 75.75 C-97.9375 73 -97.9375 73 -97.5 69.75 C-93.41555278 65.76471994 -89.63776683 63.71073043 -84.25 61.6875 C-82.91923229 61.1797885 -81.58850318 60.67197585 -80.2578125 60.1640625 C-79.61489258 59.92333008 -78.97197266 59.68259766 -78.30957031 59.43457031 C-75.89628332 58.52161069 -73.51167885 57.5426095 -71.125 56.5625 C-64.54702256 53.93778979 -57.84129897 51.85248985 -51.0625 49.8125 C-46.37819076 48.38073305 -41.87226981 46.76129865 -37.35546875 44.875 C-34.3645608 43.69663955 -31.34511136 42.66440245 -28.30029297 41.63598633 C-14.92515386 37.75226951 -14.92515386 37.75226951 -4.92578125 29.125 C-3.5 26.75 -3.5 26.75 -0.0625 25.8125 C3.65052305 25.0334006 3.65052305 25.0334006 5.9375 22.125 C8.18307007 17.27456865 8.10965445 13.64585865 7 8.375 C4.46306827 5.62665729 1.07668156 5.15403255 -2.5 4.75 C-5.85789057 5.02846607 -5.85789057 5.02846607 -8.5 5.75 C-8.70496094 6.44867188 -8.90992187 7.14734375 -9.12109375 7.8671875 C-9.39050781 8.77726562 -9.65992187 9.68734375 -9.9375 10.625 C-10.20433594 11.52992187 -10.47117187 12.43484375 -10.74609375 13.3671875 C-11.5 15.75 -11.5 15.75 -12.5 17.75 C-13.82 17.42 -15.14 17.09 -16.5 16.75 C-16.89477697 12.27586103 -15.84704706 9.5538349 -13.5 5.75 C-9.31167312 1.88385211 -5.80551531 -0.75551227 0 0 Z M-4.5 35.75 C-4.5 36.41 -4.5 37.07 -4.5 37.75 C-5.6446875 37.9665625 -5.6446875 37.9665625 -6.8125 38.1875 C-9.58172908 38.7132594 -9.58172908 38.7132594 -12.5 39.75 C-12.5 40.41 -12.5 41.07 -12.5 41.75 C-13.33402344 41.85828125 -14.16804688 41.9665625 -15.02734375 42.078125 C-18.88929044 42.82531829 -22.41303832 44.07617062 -26.0625 45.5 C-26.68962891 45.73976563 -27.31675781 45.97953125 -27.96289062 46.2265625 C-31.09636755 47.42674912 -34.2237528 48.64047374 -37.34301758 49.87719727 C-43.36585074 52.24122582 -49.4154748 54.4322867 -55.56640625 56.43359375 C-56.60641533 56.77244095 -56.60641533 56.77244095 -57.66743469 57.11813354 C-60.51290346 58.04239112 -63.35935546 58.96324526 -66.2097168 59.87231445 C-79.95195715 64.02943809 -79.95195715 64.02943809 -92.5 70.75 C-93.38195199 72.83071532 -93.38195199 72.83071532 -93.5 74.75 C-86.29260664 79.27470178 -80.22091442 78.93409564 -71.97537231 77.88345337 C-69.16439363 77.5269507 -66.34811076 77.22824489 -63.5308075 76.92652893 C-62.06058062 76.76903273 -60.59061853 76.609046 -59.1209259 76.44664001 C-51.44832059 75.6065414 -43.7655141 75.03741459 -36.0625 74.5625 C-35.06469009 74.50076096 -35.06469009 74.50076096 -34.04672241 74.43777466 C-21.18676531 73.66163656 -8.37775844 73.45857532 4.5 73.75 C5.72493164 73.77102783 5.72493164 73.77102783 6.97460938 73.79248047 C18.43791401 74.02317353 29.75580773 75.29011163 41.125 76.6875 C41.84446808 76.77585114 42.56393616 76.86420227 43.3052063 76.95523071 C49.96670124 77.77702103 56.62432506 78.61646011 63.26953125 79.5625 C74.72381841 81.28252772 74.72381841 81.28252772 85.5 77.75 C85.83 76.76 86.16 75.77 86.5 74.75 C73.88627985 65.89769769 58.35996765 61.9918109 43.87280273 57.2434082 C38.12455963 55.34314027 32.54137722 53.21604552 26.98828125 50.796875 C24.66040571 49.81748623 22.34478363 49.00886349 19.9375 48.25 C11.01208967 45.36094313 3.10705484 41.21580978 -4.5 35.75 Z " fill="#030D12" transform="translate(113.5,16.25)"/>
<path d="M0 0 C0.99 0 1.98 0 3 0 C1.54970393 3.79308202 -0.15366299 7.3842567 -2 11 C-2.5878125 12.175625 -2.5878125 12.175625 -3.1875 13.375 C-3.455625 13.91125 -3.72375 14.4475 -4 15 C-3.360625 15.12375 -2.72125 15.2475 -2.0625 15.375 C-1.381875 15.58125 -0.70125 15.7875 0 16 C0.495 16.99 0.495 16.99 1 18 C1.845625 17.484375 2.69125 16.96875 3.5625 16.4375 C7.58736786 14.75437344 9.80214298 15.07647145 14 16 C14.33 15.34 14.66 14.68 15 14 C15.99 14 16.98 14 18 14 C18 14.66 18 15.32 18 16 C18.99 16 19.98 16 21 16 C22.15957207 19.47871621 21.77456651 20.34219645 20.5625 23.6875 C20.27503906 24.49574219 19.98757812 25.30398437 19.69140625 26.13671875 C19.46324219 26.75160156 19.23507813 27.36648437 19 28 C18.34 28 17.68 28 17 28 C17 28.763125 17 29.52625 17 30.3125 C16 33 16 33 14.2578125 33.89453125 C12.85328665 34.37556849 11.43590301 34.82079509 10.0078125 35.2265625 C6.09281569 36.73467411 4.55532352 39.52156087 2.8125 43.1875 C2.29623047 44.26064453 2.29623047 44.26064453 1.76953125 45.35546875 C1.51558594 45.89816406 1.26164062 46.44085938 1 47 C0.34 47 -0.32 47 -1 47 C-1 47.66 -1 48.32 -1 49 C-2.485 49.495 -2.485 49.495 -4 50 C-3.59220433 46.63568573 -2.64297543 44.19312635 -0.9375 41.3125 C1.16829444 38.35185753 1.16829444 38.35185753 1 36 C-10.92318337 36.59818836 -22.81441538 37.41324956 -34.71133804 38.40210152 C-37.53136359 38.63604487 -40.35167434 38.86623687 -43.17208862 39.09544373 C-51.17653669 39.74626021 -59.18065544 40.40094159 -67.18408203 41.06420898 C-72.11922444 41.47293336 -77.05485664 41.87524181 -81.99084091 42.27366447 C-83.84784171 42.42477366 -85.70465517 42.57820671 -87.56125259 42.7341938 C-98.74254899 43.67281862 -109.77578405 44.21155648 -121 44 C-121 43.34 -121 42.68 -121 42 C-99.17371881 39.70867403 -77.32856528 37.81421344 -55.45251465 36.07092285 C-52.14842233 35.80697043 -48.84454908 35.54033251 -45.54067993 35.27360344 C-41.52719693 34.94967306 -37.51360894 34.62705325 -33.5 34.3046875 C-32.39504181 34.21584604 -32.39504181 34.21584604 -31.26776123 34.12520981 C-21.84833948 33.36914884 -12.42695137 32.65651652 -3 32 C-3.99 31.01 -3.99 31.01 -5 30 C-5.99 30.66 -6.98 31.32 -8 32 C-8.99 32 -9.98 32 -11 32 C-11.495 30.515 -11.495 30.515 -12 29 C-11.34 29 -10.68 29 -10 29 C-10.495 28.01 -10.495 28.01 -11 27 C-11.36351562 27.81597656 -11.72703125 28.63195312 -12.1015625 29.47265625 C-14 32 -14 32 -16.9609375 32.55859375 C-18.65089844 32.49865234 -18.65089844 32.49865234 -20.375 32.4375 C-21.49648437 32.41558594 -22.61796875 32.39367187 -23.7734375 32.37109375 C-26.87421471 32.01446683 -29.18594241 31.31217292 -32 30 C-31.43768609 26.06380262 -30.38314183 23.20807554 -28 20 C-27.01 20 -26.02 20 -25 20 C-25.33 22.64 -25.66 25.28 -26 28 C-24.68 28 -23.36 28 -22 28 C-19.36849957 24.05274935 -20.1829441 22.60522418 -21 18 C-21.15597656 17.23558594 -21.31195313 16.47117187 -21.47265625 15.68359375 C-21.86274553 13.3847181 -22.13039232 11.32907655 -22 9 C-20.0625 6.4375 -20.0625 6.4375 -17 5 C-14.23826953 4.69936882 -11.7944246 4.81054748 -9 5 C-9 6.98 -9 8.96 -9 11 C-10.32 11.66 -11.64 12.32 -13 13 C-13 11.02 -13 9.04 -13 7 C-14.32 8.32 -15.64 9.64 -17 11 C-16.01 14.3 -15.02 17.6 -14 21 C-12.7625 19.14375 -12.7625 19.14375 -11.5 17.25 C-10.95730469 16.44175781 -10.41460937 15.63351563 -9.85546875 14.80078125 C-8.5242345 12.79131819 -7.21704334 10.76584798 -5.92578125 8.73046875 C-5.22839844 7.64378906 -4.53101563 6.55710937 -3.8125 5.4375 C-3.15894531 4.40496094 -2.50539063 3.37242188 -1.83203125 2.30859375 C-0.92517578 1.16583984 -0.92517578 1.16583984 0 0 Z M6 18 C6.33 18.99 6.66 19.98 7 21 C7.33 20.01 7.66 19.02 8 18 C7.34 18 6.68 18 6 18 Z M4 21 C1.38103911 23.82847776 0.5260925 26.21213403 0 30 C4.28070998 26.22406041 4.28070998 26.22406041 6 21 C5.34 21 4.68 21 4 21 Z M-15 22 C-14 24 -14 24 -14 24 Z M-3 22 C-2 24 -2 24 -2 24 Z M9 23 C10 25 10 25 10 25 Z M14 23 C14 23.99 14 24.98 14 26 C14.66 25.34 15.32 24.68 16 24 C15.34 23.67 14.68 23.34 14 23 Z M7 26 C8 28 8 28 8 28 Z M12 26 C12 26.66 12 27.32 12 28 C12.66 28 13.32 28 14 28 C14 27.34 14 26.68 14 26 C13.34 26 12.68 26 12 26 Z M11 28 C10.67 28.66 10.34 29.32 10 30 C10.66 30 11.32 30 12 30 C11.67 29.34 11.34 28.68 11 28 Z M5 29 C4.67 29.66 4.34 30.32 4 31 C4.66 31 5.32 31 6 31 C5.67 30.34 5.34 29.68 5 29 Z " fill="#030F15" transform="translate(151,100)"/>
<path d="M0 0 C-1.46799517 4.89331723 -3.33028674 9.63043025 -6 14 C-6.66 14.33 -7.32 14.66 -8 15 C-7.505 15.99 -7.505 15.99 -7 17 C-5.68 16.67 -4.36 16.34 -3 16 C-3 16.99 -3 17.98 -3 19 C-2.401875 18.484375 -1.80375 17.96875 -1.1875 17.4375 C-0.465625 16.963125 0.25625 16.48875 1 16 C1.99 16.33 2.98 16.66 4 17 C3.01 18.98 2.02 20.96 1 23 C2.4375 20.0625 2.4375 20.0625 5 17 C7.99656438 16.05791848 10.86894858 15.70986396 14 16 C14.99 16.99 14.99 16.99 16 18 C16.763125 17.67 17.52625 17.34 18.3125 17 C21.45205002 15.83179534 23.11634276 15.5960424 26.1875 17 C26.785625 17.33 27.38375 17.66 28 18 C28 22.51985754 27.42650192 24.47037746 24.37890625 27.73828125 C23.47978516 28.51751953 23.47978516 28.51751953 22.5625 29.3125 C21.66724609 30.11107422 21.66724609 30.11107422 20.75390625 30.92578125 C20.17511719 31.28027344 19.59632812 31.63476562 19 32 C17.515 31.505 17.515 31.505 16 31 C16 30.01 16 29.02 16 28 C14.68 29.32 13.36 30.64 12 32 C11.01 31.67 10.02 31.34 9 31 C9.33 30.34 9.66 29.68 10 29 C9.278125 29.515625 8.55625 30.03125 7.8125 30.5625 C5 32 5 32 2.25 31.8125 C0 31 0 31 -1 29 C-1.61875 29.495 -2.2375 29.99 -2.875 30.5 C-5 32 -5 32 -7 32 C-7.495 31.01 -7.495 31.01 -8 30 C-9.65 30.66 -11.3 31.32 -13 32 C-13.495 30.515 -13.495 30.515 -14 29 C-14.55171875 29.49113281 -15.1034375 29.98226562 -15.671875 30.48828125 C-18.46370069 32.30109424 -19.96185741 32.3172951 -23.25 32.1875 C-24.58804688 32.14689453 -24.58804688 32.14689453 -25.953125 32.10546875 C-26.62859375 32.07066406 -27.3040625 32.03585938 -28 32 C-28.33 31.34 -28.66 30.68 -29 30 C-30.60875 30.2475 -30.60875 30.2475 -32.25 30.5 C-36 31 -36 31 -40 31 C-39.54996653 25.37458159 -38.31558515 22.38512875 -35 18 C-35.99 18 -36.98 18 -38 18 C-38.54269531 19.04800781 -39.08539063 20.09601563 -39.64453125 21.17578125 C-40.36689559 22.55484044 -41.08956801 23.93373829 -41.8125 25.3125 C-42.16892578 26.00279297 -42.52535156 26.69308594 -42.89257812 27.40429688 C-43.24384766 28.07138672 -43.59511719 28.73847656 -43.95703125 29.42578125 C-44.27647705 30.03848877 -44.59592285 30.65119629 -44.92504883 31.2824707 C-46.1022578 33.16338487 -47.31191691 34.5607392 -49 36 C-49.66 36 -50.32 36 -51 36 C-50.46540264 31.46928735 -49.3002688 28.30093954 -47 24.375 C-45.17983293 21.25096324 -43.67044715 18.5701311 -43 15 C-42.01 15 -41.02 15 -40 15 C-39.66376204 13.7090864 -39.33110751 12.41723903 -39 11.125 C-38.7215625 10.04605469 -38.7215625 10.04605469 -38.4375 8.9453125 C-37.92686035 7.00710683 -37.92686035 7.00710683 -38 5 C-32.97874074 4.22083908 -29.02296004 3.86983399 -24 5 C-24.60183749 7.02045442 -25.27306096 9.02111039 -26 11 C-26.99 11.495 -26.99 11.495 -28 12 C-28.33 11.01 -28.66 10.02 -29 9 C-28.67 8.34 -28.34 7.68 -28 7 C-29.87880872 7.04768403 -29.87880872 7.04768403 -32 8 C-34.26325246 10.97763043 -34.26325246 10.97763043 -36 14 C-32.67438135 15.76062164 -31.40826005 16.10784228 -27.6875 15.125 C-26.3571875 14.568125 -26.3571875 14.568125 -25 14 C-24.34 15.65 -23.68 17.3 -23 19 C-20.03 16.525 -20.03 16.525 -17 14 C-16.34 14.66 -15.68 15.32 -15 16 C-15.66 17.32 -16.32 18.64 -17 20 C-16.34 20 -15.68 20 -15 20 C-13.77735292 18.15277176 -12.64620306 16.24452115 -11.5625 14.3125 C-10.96566406 13.25675781 -10.36882812 12.20101562 -9.75390625 11.11328125 C-9.17511719 10.08589844 -8.59632812 9.05851562 -8 8 C-3.3258427 0 -3.3258427 0 0 0 Z M-26 20 C-26.33 21.32 -26.66 22.64 -27 24 C-26.01 23.34 -25.02 22.68 -24 22 C-24 21.34 -24 20.68 -24 20 C-24.66 20 -25.32 20 -26 20 Z M8 20 C4.83777873 23.75924852 4.83777873 23.75924852 4.25 28.375 C4.4975 28.91125 4.745 29.4475 5 30 C7.7972908 27.93243723 8.02692273 26.85559629 8.6875 23.3125 C8.790625 22.219375 8.89375 21.12625 9 20 C8.67 20 8.34 20 8 20 Z M-18 21 C-18 22.65 -18 24.3 -18 26 C-17.34 24.68 -16.68 23.36 -16 22 C-16.66 21.67 -17.32 21.34 -18 21 Z M-33 22 C-32 24 -32 24 -32 24 Z M-23 23 C-23.66 25.31 -24.32 27.62 -25 30 C-24.01 29.34 -23.02 28.68 -22 28 C-21.74969023 25.41619823 -21.74969023 25.41619823 -22 23 C-22.33 23 -22.66 23 -23 23 Z M12 23 C13 25 13 25 13 25 Z M24 23 C25 25 25 25 25 25 Z M18 24 C19 26 19 26 19 26 Z M10 27 C11 29 11 29 11 29 Z " fill="#061016" transform="translate(91,99)"/>
<path d="M0 0 C0 1.98 0 3.96 0 6 C-1.98 6.99 -1.98 6.99 -4 8 C-4 6.02 -4 4.04 -4 2 C-5.32 3.32 -6.64 4.64 -8 6 C-7.74863281 6.70125 -7.49726563 7.4025 -7.23828125 8.125 C-5.0296672 14.98381832 -4.71023085 18.542305 -8 25 C-10.04315802 21.93526297 -10.74260315 19.73045705 -11.625 16.1875 C-11.88539063 15.17042969 -12.14578125 14.15335938 -12.4140625 13.10546875 C-13.00909792 9.951781 -13.24438582 7.19964398 -13 4 C-9.09351253 -0.63895387 -5.65200184 -0.38318657 0 0 Z " fill="#03090E" transform="translate(142,105)"/>
<path d="M0 0 C-1.46799517 4.89331723 -3.33028674 9.63043025 -6 14 C-6.99 14.495 -6.99 14.495 -8 15 C-8 15.99 -8 16.98 -8 18 C-8.99 18 -9.98 18 -11 18 C-12.23726975 20.91642155 -13.12718423 23.57722073 -13.8125 26.6875 C-15 30 -15 30 -17.625 31.4375 C-18.40875 31.623125 -19.1925 31.80875 -20 32 C-19.690625 31.29875 -19.38125 30.5975 -19.0625 29.875 C-17.88851937 27.01260457 -17.88851937 27.01260457 -17.5625 23.875 C-17 21 -17 21 -15.7578125 19.76171875 C-13.14537749 17.14347833 -11.29173912 14.04051764 -9.3125 10.9375 C-8.89677734 10.30005859 -8.48105469 9.66261719 -8.05273438 9.00585938 C-5.76882357 5.76432564 -5.76882357 5.76432564 -5 2 C-2 0 -2 0 0 0 Z " fill="#010B11" transform="translate(91,99)"/>
<path d="M0 0 C1.051875 0.144375 2.10375 0.28875 3.1875 0.4375 C2.74740101 3.07809394 2.29254868 5.23323867 1.0625 7.625 C0.629375 8.5221875 0.629375 8.5221875 0.1875 9.4375 C0.5175 10.0975 0.8475 10.7575 1.1875 11.4375 C0.5275 11.4375 -0.1325 11.4375 -0.8125 11.4375 C-1.1425 12.4275 -1.4725 13.4175 -1.8125 14.4375 C-4.8125 16.4375 -4.8125 16.4375 -7.8125 16.4375 C-8.1425 15.4475 -8.4725 14.4575 -8.8125 13.4375 C-8.1525 13.4375 -7.4925 13.4375 -6.8125 13.4375 C-7.245625 12.591875 -7.67875 11.74625 -8.125 10.875 C-8.87183823 7.14080885 -8.79251744 6.61932164 -6.875 3.5625 C-4.49620782 0.57258165 -4.05767296 0.4656346 0 0 Z " fill="#050B11" transform="translate(147.8125,115.5625)"/>
<path d="M0 0 C0.33 0.66 0.66 1.32 1 2 C0.236875 2.268125 -0.52625 2.53625 -1.3125 2.8125 C-3.96751765 3.78628403 -3.96751765 3.78628403 -5.41796875 5.453125 C-7.17831375 7.17435122 -8.75686961 7.94763375 -11 8.9375 C-14.28859776 10.49747586 -16.00277703 11.89320871 -18 15 C-18.66 15 -19.32 15 -20 15 C-20.375 12.3125 -20.375 12.3125 -20 9 C-15.12446621 3.74942515 -7.41025206 -0.95616156 0 0 Z " fill="#01080E" transform="translate(36,77)"/>
<path d="M0 0 C2 2 2 2 2 6 C0.02 6.99 0.02 6.99 -2 8 C-2 8.66 -2 9.32 -2 10 C-2.66 10 -3.32 10 -4 10 C-4 11.32 -4 12.64 -4 14 C-4 14.99 -4 15.98 -4 17 C-5.98 17.99 -5.98 17.99 -8 19 C-9.25 16.375 -9.25 16.375 -10 13 C-7.88848594 8.77697189 -6.0947383 7.04736915 -2 5 C-0.71745356 2.46229997 -0.71745356 2.46229997 0 0 Z " fill="#0D161D" transform="translate(167,116)"/>
<path d="M0 0 C1 3 1 3 0.00390625 5.48046875 C-0.47175781 6.37378906 -0.94742188 7.26710937 -1.4375 8.1875 C-1.91058594 9.08855469 -2.38367188 9.98960937 -2.87109375 10.91796875 C-3.24363281 11.60503906 -3.61617187 12.29210937 -4 13 C-4.66 13 -5.32 13 -6 13 C-6 13.66 -6 14.32 -6 15 C-6.99 15.33 -7.98 15.66 -9 16 C-8.41774247 12.34471662 -7.43242431 9.53847854 -5.625 6.3125 C-5.20476562 5.54550781 -4.78453125 4.77851563 -4.3515625 3.98828125 C-3 2 -3 2 0 0 Z " fill="#010A12" transform="translate(156,134)"/>
<path d="M0 0 C0.3125 2.1875 0.3125 2.1875 0 5 C-2.5 7.8125 -2.5 7.8125 -5 10 C-4.67 10.66 -4.34 11.32 -4 12 C-5.65 12.66 -7.3 13.32 -9 14 C-8.05054252 11.55853792 -7.1015555 9.19182705 -5.875 6.875 C-4.78855727 4.89176146 -4.78855727 4.89176146 -5 2 C-2 0 -2 0 0 0 Z " fill="#051118" transform="translate(88,115)"/>
<path d="M0 0 C0 1.98 0 3.96 0 6 C-1.98 6.99 -1.98 6.99 -4 8 C-4 6.02 -4 4.04 -4 2 C-6.475 3.485 -6.475 3.485 -9 5 C-9.99 4.34 -10.98 3.68 -12 3 C-8.2391768 -0.7608232 -5.0273023 -0.25136512 0 0 Z " fill="#000F13" transform="translate(142,105)"/>
<path d="M0 0 C0.33 0.99 0.66 1.98 1 3 C-1.83430453 6.2542015 -3.68607774 7.5206753 -8 8 C-8 7.34 -8 6.68 -8 6 C-8.66 5.67 -9.32 5.34 -10 5 C-10 4.34 -10 3.68 -10 3 C-8.35 2.34 -6.7 1.68 -5 1 C-4.67 1.99 -4.34 2.98 -4 4 C-2.68 2.68 -1.36 1.36 0 0 Z " fill="#151A20" transform="translate(65,122)"/>
<path d="M0 0 C0.99 0 1.98 0 3 0 C2.34 3.3 1.68 6.6 1 10 C-0.65 10 -2.3 10 -4 10 C-3.43768609 6.06380262 -2.38314183 3.20807554 0 0 Z " fill="#011419" transform="translate(123,120)"/>
<path d="M0 0 C1.32 0.66 2.64 1.32 4 2 C3.34 2 2.68 2 2 2 C2 3.65 2 5.3 2 7 C1.34 7 0.68 7 0 7 C-0.33 7.66 -0.66 8.32 -1 9 C-1.99 9.33 -2.98 9.66 -4 10 C-4 5.28093812 -2.71245796 3.72962969 0 0 Z " fill="#1D2228" transform="translate(144,116)"/>
<path d="M0 0 C1.32 0.33 2.64 0.66 4 1 C2.82744291 4.33727786 1.81131596 6.77437487 -1 9 C-1.66 9 -2.32 9 -3 9 C-2.5020163 5.26512223 -2.12508244 3.18762365 0 0 Z " fill="#01141A" transform="translate(43,126)"/>
<path d="M0 0 C-1 3 -1 3 -2 5 C-4.33333333 5 -6.66666667 5 -9 5 C-9.99 5.495 -9.99 5.495 -11 6 C-10.1875 3.5625 -10.1875 3.5625 -9 1 C-5.8035914 -0.06546953 -3.34252724 -0.07427838 0 0 Z " fill="#09121D" transform="translate(105,115)"/>
<path d="M0 0 C0.66 0 1.32 0 2 0 C2.33 0.66 2.66 1.32 3 2 C3.66 1.34 4.32 0.68 5 0 C5.99 0.33 6.98 0.66 8 1 C7.01 1.495 7.01 1.495 6 2 C5.67 2.99 5.34 3.98 5 5 C2 7 2 7 -1 7 C-1.33 6.01 -1.66 5.02 -2 4 C-1.34 4 -0.68 4 0 4 C0 2.68 0 1.36 0 0 Z " fill="#0B151A" transform="translate(141,125)"/>
<path d="M0 0 C0.79921875 0.11085938 1.5984375 0.22171875 2.421875 0.3359375 C3.32679688 0.47902344 3.32679688 0.47902344 4.25 0.625 C4.25 1.285 4.25 1.945 4.25 2.625 C2.83566794 2.8486337 1.41832382 3.05326476 0 3.25 C-0.78890625 3.36601563 -1.5778125 3.48203125 -2.390625 3.6015625 C-5.07152459 3.62819395 -6.47694089 2.99092084 -8.75 1.625 C-5.5750906 -0.2828584 -3.64414789 -0.5359041 0 0 Z " fill="#01070A" transform="translate(181.75,95.375)"/>
<path d="M0 0 C0.99 0.33 1.98 0.66 3 1 C5.0745356 1.1490712 5.0745356 1.1490712 7 0 C6.44271087 3.34373475 5.64826111 6.03312999 4 9 C3.01 8.67 2.02 8.34 1 8 C0.67 5.36 0.34 2.72 0 0 Z " fill="#03060A" transform="translate(58,118)"/>
<path d="M0 0 C0.33 0.99 0.66 1.98 1 3 C0.04504326 4.69287785 -0.9590934 6.35857037 -2 8 C-2.69579454 10.19130534 -2.69579454 10.19130534 -3 12 C-3.66 12 -4.32 12 -5 12 C-4.64989059 3.64989059 -4.64989059 3.64989059 -1.9375 0.9375 C-1.298125 0.628125 -0.65875 0.31875 0 0 Z " fill="#02090C" transform="translate(97,118)"/>
<path d="M0 0 C2.625 0.9375 2.625 0.9375 5 2 C1.57653445 5.14958831 -1.44262737 5.56179109 -6 6 C-5.34 5.01 -4.68 4.02 -4 3 C-3.34 3 -2.68 3 -2 3 C-2 2.34 -2 1.68 -2 1 C-1.34 0.67 -0.68 0.34 0 0 Z " fill="#02080D" transform="translate(47,71)"/>
<path d="M0 0 C0.99 0.33 1.98 0.66 3 1 C0.25 5.875 0.25 5.875 -2 7 C-2.66 7.99 -3.32 8.98 -4 10 C-5.37780724 7.24438552 -4.92023755 5.90228766 -4 3 C-2.125 1.125 -2.125 1.125 0 0 Z " fill="#030E12" transform="translate(92,115)"/>
<path d="M0 0 C1.5843317 0.08768248 3.16753567 0.19587329 4.75 0.3125 C6.07257812 0.39951172 6.07257812 0.39951172 7.421875 0.48828125 C10 1 10 1 14 4 C8.06 4.495 8.06 4.495 2 5 C2.99 4.67 3.98 4.34 5 4 C5 3.34 5 2.68 5 2 C3.35 1.67 1.7 1.34 0 1 C0 0.67 0 0.34 0 0 Z " fill="#031218" transform="translate(26,94)"/>
<path d="M0 0 C-2 2 -2 2 -4.8203125 2.1953125 C-5.91085938 2.17210937 -7.00140625 2.14890625 -8.125 2.125 C-9.22070312 2.10695312 -10.31640625 2.08890625 -11.4453125 2.0703125 C-12.28835937 2.04710937 -13.13140625 2.02390625 -14 2 C-14 1.34 -14 0.68 -14 0 C-9.02936879 -0.91297308 -4.97063121 -0.91297308 0 0 Z " fill="#000B16" transform="translate(44,142)"/>
<path d="M0 0 C2.64 0 5.28 0 8 0 C8 0.33 8 0.66 8 1 C10.97 1.495 10.97 1.495 14 2 C14 2.33 14 2.66 14 3 C9.71 3 5.42 3 1 3 C0.67 2.01 0.34 1.02 0 0 Z " fill="#08151D" transform="translate(97,136)"/>
<path d="M0 0 C3.96 0 7.92 0 12 0 C11.67 0.99 11.34 1.98 11 3 C7.37 2.67 3.74 2.34 0 2 C0 1.34 0 0.68 0 0 Z " fill="#000306" transform="translate(124,91)"/>
<path d="M0 0 C-1.65 0.66 -3.3 1.32 -5 2 C-5 2.66 -5 3.32 -5 4 C-6.65 4 -8.3 4 -10 4 C-10.33 3.34 -10.66 2.68 -11 2 C-3.57142857 -1.57142857 -3.57142857 -1.57142857 0 0 Z " fill="#02080F" transform="translate(84,62)"/>
<path d="M0 0 C1.32 0.66 2.64 1.32 4 2 C1.67164076 5.49253886 -0.74274862 7.38003693 -4 10 C-2.8905928 6.51329166 -1.73662334 3.22515763 0 0 Z " fill="#1C1E26" transform="translate(80,117)"/>
<path d="M0 0 C1.4540625 0.0309375 1.4540625 0.0309375 2.9375 0.0625 C2.33566251 2.08295442 1.66443904 4.08361039 0.9375 6.0625 C-0.0525 6.5575 -0.0525 6.5575 -1.0625 7.0625 C-1.3925 6.0725 -1.7225 5.0825 -2.0625 4.0625 C-1.7325 3.4025 -1.4025 2.7425 -1.0625 2.0625 C-2.0525 1.7325 -3.0425 1.4025 -4.0625 1.0625 C-3.0625 0.0625 -3.0625 0.0625 0 0 Z " fill="#001119" transform="translate(64.0625,103.9375)"/>
<path d="M0 0 C1.53166168 4.08443115 0.63081652 7.79455657 0 12 C-2.44897847 8.32653229 -2.31537716 6.33643601 -2 2 C-1.34 1.34 -0.68 0.68 0 0 Z " fill="#020305" transform="translate(134,118)"/>
<path d="M0 0 C0.66 0.66 1.32 1.32 2 2 C1.625 5.625 1.625 5.625 1 9 C0.01 9 -0.98 9 -2 9 C-1.34 6.03 -0.68 3.06 0 0 Z " fill="#02050E" transform="translate(72,116)"/>
<path d="M0 0 C1.98 0 3.96 0 6 0 C5.67 0.99 5.34 1.98 5 3 C1.4375 4.1875 1.4375 4.1875 -2 5 C-1.34 3.35 -0.68 1.7 0 0 Z " fill="#010A0D" transform="translate(62,66)"/>
<path d="M0 0 C0.33 1.32 0.66 2.64 1 4 C0.01 4.495 0.01 4.495 -1 5 C-0.67 5.66 -0.34 6.32 0 7 C-1.65 7.66 -3.3 8.32 -5 9 C-3.7508258 5.54074837 -2.32472205 2.85306797 0 0 Z " fill="#020409" transform="translate(84,120)"/>
<path d="M0 0 C1.32 0.66 2.64 1.32 4 2 C1.9927092 5.0109362 1.16115776 5.63016497 -2 7 C-2.125 4.625 -2.125 4.625 -2 2 C-1.34 1.34 -0.68 0.68 0 0 Z " fill="#000615" transform="translate(115,115)"/>
<path d="M0 0 C3.3 0.33 6.6 0.66 10 1 C9.67 1.66 9.34 2.32 9 3 C6.67843403 3.40729228 4.3431213 3.74438677 2 4 C1.34 2.68 0.68 1.36 0 0 Z " fill="#000508" transform="translate(151,93)"/>
<path d="M0 0 C0.99 0.33 1.98 0.66 3 1 C2.67 3.64 2.34 6.28 2 9 C0.68 7.35 -0.64 5.7 -2 4 C-1.34 2.68 -0.68 1.36 0 0 Z " fill="#1A2024" transform="translate(90,121)"/>
<path d="M0 0 C0 0.66 0 1.32 0 2 C-3.3 2 -6.6 2 -10 2 C-6.70021068 -0.19985954 -3.76967739 -1.88483869 0 0 Z " fill="#00050B" transform="translate(98,137)"/>
<path d="M0 0 C0.99 0.33 1.98 0.66 3 1 C2.67 1.99 2.34 2.98 2 4 C-0.0625 4.6875 -0.0625 4.6875 -2 5 C-2 2 -2 2 0 0 Z " fill="#010B12" transform="translate(110,126)"/>
<path d="M0 0 C2.64 0.99 5.28 1.98 8 3 C6.68 3.33 5.36 3.66 4 4 C4 4.66 4 5.32 4 6 C1.2160817 4.60804085 1.02101003 2.84424221 0 0 Z " fill="#04161C" transform="translate(153,67)"/>
<path d="M0 0 C0.33 0 0.66 0 1 0 C1 2.64 1 5.28 1 8 C-0.32 7.67 -1.64 7.34 -3 7 C-2.01 4.69 -1.02 2.38 0 0 Z " fill="#01050D" transform="translate(123,122)"/>
<path d="M0 0 C1.65 0.33 3.3 0.66 5 1 C5 1.66 5 2.32 5 3 C4.38125 3.144375 3.7625 3.28875 3.125 3.4375 C0.96741678 3.93152225 0.96741678 3.93152225 -1 5 C-0.67 3.35 -0.34 1.7 0 0 Z " fill="#0F1A1F" transform="translate(62,116)"/>
<path d="M0 0 C0.66 0 1.32 0 2 0 C1.67 1.65 1.34 3.3 1 5 C0.01 5 -0.98 5 -2 5 C-1.125 1.125 -1.125 1.125 0 0 Z " fill="#000F17" transform="translate(95,109)"/>
<path d="" fill="#000000" transform="translate(0,0)"/>
<path d="" fill="#000000" transform="translate(0,0)"/>
<path d="" fill="#001A1A" transform="translate(0,0)"/>
<path d="" fill="#000000" transform="translate(0,0)"/>
<path d="" fill="#002020" transform="translate(0,0)"/>
<path d="" fill="#000000" transform="translate(0,0)"/>
<path d="" fill="#000000" transform="translate(0,0)"/>
<path d="" fill="#000000" transform="translate(0,0)"/>
<path d="" fill="#002020" transform="translate(0,0)"/>
<path d="" fill="#001A1A" transform="translate(0,0)"/>
<path d="" fill="#002A2A" transform="translate(0,0)"/>
<path d="" fill="#000000" transform="translate(0,0)"/>
</svg>
